<svg xmlns="http://www.w3.org/2000/svg" viewBox="0 0 120 120" width="120" height="120">
  <defs>
    <clipPath id="circle"><circle cx="60" cy="52" r="45"/></clipPath>
  </defs>
  <circle cx="60" cy="52" r="45" fill="#fef9c3" stroke="#000" stroke-width="3"/>
  <!-- Futuristic hair (styled up, metallic) -->
  <path d="M32,38 Q35,16 60,14 Q85,16 88,38" fill="#2dd4bf" stroke="#000" stroke-width="2.5"/>
  <path d="M32,38 L32,46" fill="none" stroke="#000" stroke-width="2"/>
  <path d="M88,38 L88,46" fill="none" stroke="#000" stroke-width="2"/>
  <!-- Cyberpunk hair detail -->
  <path d="M40,22 L42,18 L46,20" fill="none" stroke="#14b8a6" stroke-width="1.5"/>
  <path d="M74,20 L78,18 L80,22" fill="none" stroke="#14b8a6" stroke-width="1.5"/>
  <!-- Face -->
  <ellipse cx="60" cy="52" rx="20" ry="24" fill="#f5d0a9" stroke="#000" stroke-width="2.5"/>
  <!-- Futuristic glasses (cyber) -->
  <rect x="38" y="42" width="16" height="10" rx="3" fill="none" stroke="#000" stroke-width="2"/>
  <rect x="66" y="42" width="16" height="10" rx="3" fill="none" stroke="#000" stroke-width="2"/>
  <line x1="54" y1="47" x2="66" y2="47" stroke="#000" stroke-width="2"/>
  <!-- HUD lines on glasses -->
  <line x1="40" y1="44" x2="48" y2="44" stroke="#2dd4bf" stroke-width="0.8"/>
  <line x1="72" y1="44" x2="80" y2="44" stroke="#2dd4bf" stroke-width="0.8"/>
  <!-- Eyes -->
  <circle cx="46" cy="47" r="2.5" fill="#000"/>
  <circle cx="74" cy="47" r="2.5" fill="#000"/>
  <!-- Nose -->
  <path d="M58,52 Q60,57 62,52" fill="none" stroke="#000" stroke-width="2"/>
  <!-- Cyber smile -->
  <path d="M50,62 Q60,66 70,62" fill="none" stroke="#000" stroke-width="2"/>
  <!-- Futuristic suit -->
  <rect x="28" y="72" width="64" height="28" rx="6" fill="#eab308" stroke="#000" stroke-width="2.5"/>
  <path d="M44,72 L60,84 L76,72" fill="none" stroke="#000" stroke-width="2"/>
  <line x1="60" y1="72" x2="60" y2="84" stroke="#000" stroke-width="1.5"/>
  <!-- Circuit lines on suit -->
  <path d="M34,82 L42,82 L42,78" fill="none" stroke="#ca8a04" stroke-width="1"/>
  <path d="M86,82 L78,82 L78,78" fill="none" stroke="#ca8a04" stroke-width="1"/>
  <!-- Name label -->
  <rect x="5" y="98" width="110" height="18" rx="4" fill="#eab308" stroke="#000" stroke-width="2"/>
  <text x="60" y="111" text-anchor="middle" font-family="Arial,Helvetica,sans-serif" font-size="9" font-weight="bold" fill="#000">ARPS</text>
</svg>