<svg xmlns="http://www.w3.org/2000/svg" viewBox="0 0 120 120" width="120" height="120">
  <defs>
    <clipPath id="circle"><circle cx="60" cy="52" r="45"/></clipPath>
  </defs>
  <circle cx="60" cy="52" r="45" fill="#bbf7d0" stroke="#000" stroke-width="3"/>
  <!-- Hair (blonde, wavy) -->
  <path d="M32,36 Q35,18 60,16 Q85,18 88,36" fill="#f7d44a" stroke="#000" stroke-width="2.5"/>
  <path d="M32,36 Q30,42 32,48" fill="none" stroke="#000" stroke-width="2"/>
  <path d="M88,36 Q90,42 88,48" fill="none" stroke="#000" stroke-width="2"/>
  <!-- Wavy hair strands -->
  <path d="M36,30 Q40,28 44,30 Q48,32 52,30" fill="none" stroke="#e8c030" stroke-width="1.5"/>
  <path d="M68,30 Q72,32 76,30 Q80,28 84,30" fill="none" stroke="#e8c030" stroke-width="1.5"/>
  <!-- Face -->
  <ellipse cx="60" cy="52" rx="20" ry="24" fill="#f5d0a9" stroke="#000" stroke-width="2.5"/>
  <!-- Eyebrows -->
  <path d="M44,40 Q52,37 56,40" fill="none" stroke="#8B6914" stroke-width="2.5"/>
  <path d="M64,40 Q68,37 76,40" fill="none" stroke="#8B6914" stroke-width="2.5"/>
  <!-- Eyes -->
  <circle cx="50" cy="46" r="3" fill="#000"/>
  <circle cx="70" cy="46" r="3" fill="#000"/>
  <!-- Nose -->
  <path d="M58,52 Q60,56 62,52" fill="none" stroke="#000" stroke-width="2"/>
  <!-- Confident smile -->
  <path d="M48,62 Q60,70 72,62" fill="none" stroke="#000" stroke-width="2"/>
  <!-- Blazer -->
  <rect x="28" y="72" width="64" height="28" rx="6" fill="#22c55e" stroke="#000" stroke-width="2.5"/>
  <path d="M44,72 L60,82 L76,72" fill="none" stroke="#000" stroke-width="2"/>
  <line x1="60" y1="72" x2="60" y2="82" stroke="#000" stroke-width="1.5"/>
  <polygon points="56,82 64,82 62,98 58,98" fill="#16a34a" stroke="#000" stroke-width="1.5"/>
  <!-- Name label -->
  <rect x="5" y="98" width="110" height="18" rx="4" fill="#22c55e" stroke="#000" stroke-width="2"/>
  <text x="60" y="111" text-anchor="middle" font-family="Arial,Helvetica,sans-serif" font-size="7" font-weight="bold" fill="#fff">Cathie Wood</text>
</svg>