<svg xmlns="http://www.w3.org/2000/svg" viewBox="0 0 120 120" width="120" height="120">
  <defs>
    <clipPath id="circle"><circle cx="60" cy="52" r="45"/></clipPath>
  </defs>
  <circle cx="60" cy="52" r="45" fill="#bfdbfe" stroke="#000" stroke-width="3"/>
  <!-- Hair (white, thin) -->
  <path d="M38,30 Q60,20 82,30 Q80,26 60,24 Q40,26 38,30" fill="#e0e0e0" stroke="#000" stroke-width="2.5"/>
  <path d="M38,30 L38,40" fill="none" stroke="#000" stroke-width="2"/>
  <path d="M82,30 L82,40" fill="none" stroke="#000" stroke-width="2"/>
  <!-- Face (thin/gaunt) -->
  <ellipse cx="60" cy="52" rx="18" ry="25" fill="#f0c898" stroke="#000" stroke-width="2.5"/>
  <!-- Deep-set eyes -->
  <path d="M44,40 Q52,36 56,40" fill="none" stroke="#555" stroke-width="2.5"/>
  <path d="M64,40 Q68,36 76,40" fill="none" stroke="#555" stroke-width="2.5"/>
  <!-- Glasses -->
  <circle cx="50" cy="46" r="8" fill="none" stroke="#000" stroke-width="2"/>
  <circle cx="70" cy="46" r="8" fill="none" stroke="#000" stroke-width="2"/>
  <line x1="58" y1="46" x2="62" y2="46" stroke="#000" stroke-width="2"/>
  <!-- Eyes -->
  <circle cx="50" cy="46" r="2.5" fill="#000"/>
  <circle cx="70" cy="46" r="2.5" fill="#000"/>
  <!-- Nose -->
  <path d="M58,52 Q60,57 62,52" fill="none" stroke="#000" stroke-width="2"/>
  <!-- Thin mouth -->
  <line x1="48" y1="64" x2="72" y2="64" stroke="#000" stroke-width="2"/>
  <!-- Suit -->
  <rect x="28" y="74" width="64" height="26" rx="6" fill="#94a3b8" stroke="#000" stroke-width="2.5"/>
  <path d="M45,74 L60,84 L75,74" fill="none" stroke="#000" stroke-width="2"/>
  <line x1="60" y1="74" x2="60" y2="84" stroke="#000" stroke-width="1.5"/>
  <!-- Name label -->
  <rect x="5" y="98" width="110" height="18" rx="4" fill="#2563eb" stroke="#000" stroke-width="2"/>
  <text x="60" y="111" text-anchor="middle" font-family="Arial,Helvetica,sans-serif" font-size="8" font-weight="bold" fill="#fff">Munger</text>
</svg>