<svg xmlns="http://www.w3.org/2000/svg" viewBox="0 0 120 120" width="120" height="120">
  <defs>
    <clipPath id="circle"><circle cx="60" cy="52" r="45"/></clipPath>
  </defs>
  <circle cx="60" cy="52" r="45" fill="#e9d5ff" stroke="#000" stroke-width="3"/>
  <!-- Hair (grey, combed back) -->
  <path d="M35,42 Q40,24 60,22 Q80,24 85,42" fill="#b0b0b0" stroke="#000" stroke-width="2.5"/>
  <path d="M35,42 L35,48" fill="none" stroke="#000" stroke-width="2"/>
  <path d="M85,42 L85,48" fill="none" stroke="#000" stroke-width="2"/>
  <!-- Face -->
  <ellipse cx="60" cy="52" rx="20" ry="24" fill="#f0c898" stroke="#000" stroke-width="2.5"/>
  <!-- Eyebrows -->
  <path d="M44,40 Q52,37 56,40" fill="none" stroke="#555" stroke-width="2.5"/>
  <path d="M64,40 Q68,37 76,40" fill="none" stroke="#555" stroke-width="2.5"/>
  <!-- Eyes (sharp) -->
  <circle cx="50" cy="46" r="3" fill="#000"/>
  <circle cx="70" cy="46" r="3" fill="#000"/>
  <!-- Nose -->
  <path d="M58,52 Q60,58 62,52" fill="none" stroke="#000" stroke-width="2"/>
  <!-- Mouth -->
  <line x1="48" y1="62" x2="72" y2="62" stroke="#000" stroke-width="2"/>
  <!-- Deep suit -->
  <rect x="28" y="72" width="64" height="28" rx="6" fill="#1e293b" stroke="#000" stroke-width="2.5"/>
  <path d="M45,72 L60,84 L75,72" fill="none" stroke="#000" stroke-width="2"/>
  <line x1="60" y1="72" x2="60" y2="84" stroke="#000" stroke-width="1.5"/>
  <polygon points="56,84 64,84 62,98 58,98" fill="#7c3aed" stroke="#000" stroke-width="1.5"/>
  <!-- Name label -->
  <rect x="5" y="98" width="110" height="18" rx="4" fill="#7c3aed" stroke="#000" stroke-width="2"/>
  <text x="60" y="111" text-anchor="middle" font-family="Arial,Helvetica,sans-serif" font-size="9" font-weight="bold" fill="#fff">Soros</text>
</svg>