<svg xmlns="http://www.w3.org/2000/svg" viewBox="0 0 1200 600" width="1200" height="600">
  <defs>
    <!-- Comic background pattern -->
    <pattern id="dots" width="20" height="20" patternUnits="userSpaceOnUse">
      <circle cx="10" cy="10" r="1" fill="#d1d5db" opacity="0.3"/>
    </pattern>
    <filter id="comic-shadow">
      <feDropShadow dx="2" dy="2" stdDeviation="0" flood-color="#000" flood-opacity="0.15"/>
    </filter>
  </defs>

  <!-- Background - light cream -->
  <rect width="1200" height="600" fill="#fefce8"/>
  <rect width="1200" height="600" fill="url(#dots)"/>

  <!-- Comic-style outer frame -->
  <rect x="8" y="8" width="1184" height="584" rx="8" fill="none" stroke="#000" stroke-width="4"/>
  <rect x="14" y="14" width="1172" height="572" rx="6" fill="none" stroke="#000" stroke-width="1.5"/>

  <!-- Corner manga accents -->
  <path d="M8,40 L8,8 L40,8" fill="none" stroke="#2563eb" stroke-width="4" stroke-linecap="round"/>
  <path d="M1192,40 L1192,8 L1160,8" fill="none" stroke="#2563eb" stroke-width="4" stroke-linecap="round"/>
  <path d="M8,560 L8,592 L40,592" fill="none" stroke="#2563eb" stroke-width="4" stroke-linecap="round"/>
  <path d="M1192,560 L1192,592 L1160,592" fill="none" stroke="#2563eb" stroke-width="4" stroke-linecap="round"/>

  <!-- ─── HEADER PANEL ─── -->
  <rect x="20" y="16" width="1160" height="80" rx="4" fill="#eff6ff" stroke="#000" stroke-width="3"/>
  <!-- Speed lines behind title -->
  <line x1="300" y1="40" x2="500" y2="40" stroke="#93c5fd" stroke-width="2"/>
  <line x1="700" y1="40" x2="900" y2="40" stroke="#93c5fd" stroke-width="2"/>
  <line x1="250" y1="64" x2="450" y2="64" stroke="#93c5fd" stroke-width="2"/>
  <line x1="750" y1="64" x2="950" y2="64" stroke="#93c5fd" stroke-width="2"/>
  <!-- Title -->
  <text x="600" y="52" text-anchor="middle" font-family="'Arial Black','Helvetica Neue',Arial,sans-serif" font-size="36" font-weight="900" fill="#1e40af" stroke="#000" stroke-width="1">🦉 AUGUR</text>
  <text x="600" y="78" text-anchor="middle" font-family="Arial,Helvetica,sans-serif" font-size="13" font-weight="bold" fill="#000">17 位投资大师 · 多智能体共识分析系统 · 可部署到任意平台</text>

  <!-- ─── SECTION LABEL: GLOBAL ─── -->
  <rect x="20" y="102" width="160" height="20" rx="10" fill="#2563eb" stroke="#000" stroke-width="2"/>
  <text x="100" y="115" text-anchor="middle" font-family="Arial,Helvetica,sans-serif" font-size="9" font-weight="bold" fill="#fff">GLOBAL VALUE &amp; MACRO</text>
  <!-- Label bracket -->
  <line x1="180" y1="112" x2="1160" y2="112" stroke="#000" stroke-width="1.5" stroke-dasharray="4,3"/>

  <!-- ─── ROW 1: 6 investor cards ─── -->
  <!-- Card: 180w x 72h, spacing: (1160-6*180)/7 = 20px each side + 17px gaps -->

  <!-- Buffet Card -->
  <g transform="translate(24,128)">
    <rect width="180" height="72" rx="4" fill="#bfdbfe" stroke="#000" stroke-width="3"/>
    <rect width="180" height="18" rx="4" fill="#2563eb" stroke="#000" stroke-width="2"/>
    <rect x="0" y="4" width="180" height="14" rx="0" fill="none"/>
    <text x="90" y="14" text-anchor="middle" font-family="Arial,Helvetica,sans-serif" font-size="9" font-weight="bold" fill="#fff">🏆 Warren Buffett</text>
    <!-- Avatar circle -->
    <circle cx="38" cy="48" r="16" fill="#f5d0a9" stroke="#000" stroke-width="2.5"/>
    <!-- Mini portrait -->
    <ellipse cx="38" cy="44" rx="8" ry="6" fill="#f5d0a9" stroke="#000" stroke-width="1.5"/>
    <circle cx="35" cy="42" r="1.5" fill="#000"/>
    <circle cx="41" cy="42" r="1.5" fill="#000"/>
    <circle cx="35" cy="42" r="4" fill="none" stroke="#000" stroke-width="1"/>
    <circle cx="41" cy="42" r="4" fill="none" stroke="#000" stroke-width="1"/>
    <path d="M36,47 Q38,49 40,47" fill="none" stroke="#000" stroke-width="1"/>
    <rect x="20" y="52" width="36" height="12" rx="3" fill="#9ca3af" stroke="#000" stroke-width="1.5"/>
    <!-- Text info -->
    <text x="90" y="44" text-anchor="middle" font-family="Arial,sans-serif" font-size="8" fill="#000">沃伦·巴菲特</text>
    <text x="90" y="56" text-anchor="middle" font-family="Arial,sans-serif" font-size="7" fill="#475569">护城河价值投资</text>
    <text x="168" y="68" text-anchor="end" font-family="Arial,sans-serif" font-size="6" fill="#93c5fd">augur-buffett</text>
  </g>

  <!-- Graham Card -->
  <g transform="translate(221,128)">
    <rect width="180" height="72" rx="4" fill="#bfdbfe" stroke="#000" stroke-width="3"/>
    <rect width="180" height="18" rx="4" fill="#2563eb" stroke="#000" stroke-width="2"/>
    <text x="90" y="14" text-anchor="middle" font-family="Arial,Helvetica,sans-serif" font-size="9" font-weight="bold" fill="#fff">📊 Benjamin Graham</text>
    <circle cx="38" cy="48" r="16" fill="#f0c898" stroke="#000" stroke-width="2.5"/>
    <!-- Mini Graham -->
    <ellipse cx="38" cy="44" rx="8" ry="6" fill="#f0c898" stroke="#000" stroke-width="1.5"/>
    <circle cx="35" cy="42" r="1.5" fill="#000"/>
    <circle cx="41" cy="42" r="1.5" fill="#000"/>
    <circle cx="35" cy="42" r="4" fill="none" stroke="#000" stroke-width="1"/>
    <circle cx="41" cy="42" r="4" fill="none" stroke="#000" stroke-width="1"/>
    <path d="M32,46 L38,48 L44,46" fill="none" stroke="#000" stroke-width="1"/>
    <rect x="20" y="52" width="36" height="12" rx="3" fill="#6b7280" stroke="#000" stroke-width="1.5"/>
    <text x="90" y="44" text-anchor="middle" font-family="Arial,sans-serif" font-size="8" fill="#000">本杰明·格雷厄姆</text>
    <text x="90" y="56" text-anchor="middle" font-family="Arial,sans-serif" font-size="7" fill="#475569">深度价值 · 安全边际</text>
    <text x="168" y="68" text-anchor="end" font-family="Arial,sans-serif" font-size="6" fill="#93c5fd">augur-graham</text>
  </g>

  <!-- Lynch Card -->
  <g transform="translate(418,128)">
    <rect width="180" height="72" rx="4" fill="#bbf7d0" stroke="#000" stroke-width="3"/>
    <rect width="180" height="18" rx="4" fill="#22c55e" stroke="#000" stroke-width="2"/>
    <text x="90" y="14" text-anchor="middle" font-family="Arial,Helvetica,sans-serif" font-size="9" font-weight="bold" fill="#fff">🚀 Peter Lynch</text>
    <circle cx="38" cy="48" r="16" fill="#f5d0a9" stroke="#000" stroke-width="2.5"/>
    <ellipse cx="38" cy="44" rx="8" ry="6" fill="#f5d0a9" stroke="#000" stroke-width="1.5"/>
    <circle cx="35" cy="42" r="1.5" fill="#000"/>
    <circle cx="41" cy="42" r="1.5" fill="#000"/>
    <path d="M34,48 Q38,50 42,48" fill="none" stroke="#000" stroke-width="1"/>
    <rect x="20" y="52" width="36" height="12" rx="3" fill="#4ade80" stroke="#000" stroke-width="1.5"/>
    <text x="90" y="44" text-anchor="middle" font-family="Arial,sans-serif" font-size="8" fill="#000">彼得·林奇</text>
    <text x="90" y="56" text-anchor="middle" font-family="Arial,sans-serif" font-size="7" fill="#475569">GARP成长</text>
    <text x="168" y="68" text-anchor="end" font-family="Arial,sans-serif" font-size="6" fill="#86efac">augur-lynch</text>
  </g>

  <!-- Dalio Card -->
  <g transform="translate(615,128)">
    <rect width="180" height="72" rx="4" fill="#e9d5ff" stroke="#000" stroke-width="3"/>
    <rect width="180" height="18" rx="4" fill="#7c3aed" stroke="#000" stroke-width="2"/>
    <text x="90" y="14" text-anchor="middle" font-family="Arial,Helvetica,sans-serif" font-size="9" font-weight="bold" fill="#fff">🌐 Ray Dalio</text>
    <circle cx="38" cy="48" r="16" fill="#fce7f3" stroke="#000" stroke-width="2.5"/>
    <ellipse cx="38" cy="44" rx="8" ry="6" fill="#fce7f3" stroke="#000" stroke-width="1.5"/>
    <circle cx="35" cy="42" r="1.5" fill="#000"/>
    <circle cx="41" cy="42" r="1.5" fill="#000"/>
    <circle cx="35" cy="42" r="4" fill="none" stroke="#000" stroke-width="1"/>
    <circle cx="41" cy="42" r="4" fill="none" stroke="#000" stroke-width="1"/>
    <path d="M36,47 Q38,49 40,47" fill="none" stroke="#000" stroke-width="1"/>
    <rect x="20" y="52" width="36" height="12" rx="3" fill="#7c3aed" stroke="#000" stroke-width="1.5"/>
    <text x="90" y="44" text-anchor="middle" font-family="Arial,sans-serif" font-size="8" fill="#000">瑞·达利欧</text>
    <text x="90" y="56" text-anchor="middle" font-family="Arial,sans-serif" font-size="7" fill="#475569">全天候 · 宏观</text>
    <text x="168" y="68" text-anchor="end" font-family="Arial,sans-serif" font-size="6" fill="#c4b5fd">augur-dalio</text>
  </g>

  <!-- Munger Card -->
  <g transform="translate(812,128)">
    <rect width="180" height="72" rx="4" fill="#bfdbfe" stroke="#000" stroke-width="3"/>
    <rect width="180" height="18" rx="4" fill="#2563eb" stroke="#000" stroke-width="2"/>
    <text x="90" y="14" text-anchor="middle" font-family="Arial,Helvetica,sans-serif" font-size="9" font-weight="bold" fill="#fff">🧠 Charlie Munger</text>
    <circle cx="38" cy="48" r="16" fill="#f0c898" stroke="#000" stroke-width="2.5"/>
    <ellipse cx="38" cy="43" rx="7" ry="8" fill="#f0c898" stroke="#000" stroke-width="1.5"/>
    <circle cx="35" cy="42" r="1.5" fill="#000"/>
    <circle cx="41" cy="42" r="1.5" fill="#000"/>
    <circle cx="35" cy="42" r="4" fill="none" stroke="#000" stroke-width="1"/>
    <circle cx="41" cy="42" r="4" fill="none" stroke="#000" stroke-width="1"/>
    <line x1="33" y1="49" x2="43" y2="49" stroke="#000" stroke-width="1"/>
    <rect x="20" y="52" width="36" height="12" rx="3" fill="#94a3b8" stroke="#000" stroke-width="1.5"/>
    <text x="90" y="44" text-anchor="middle" font-family="Arial,sans-serif" font-size="8" fill="#000">查理·芒格</text>
    <text x="90" y="56" text-anchor="middle" font-family="Arial,sans-serif" font-size="7" fill="#475569">格栅理论</text>
    <text x="168" y="68" text-anchor="end" font-family="Arial,sans-serif" font-size="6" fill="#93c5fd">augur-munger</text>
  </g>

  <!-- Soros Card -->
  <g transform="translate(1009,128)">
    <rect width="170" height="72" rx="4" fill="#e9d5ff" stroke="#000" stroke-width="3"/>
    <rect width="170" height="18" rx="4" fill="#7c3aed" stroke="#000" stroke-width="2"/>
    <text x="85" y="14" text-anchor="middle" font-family="Arial,Helvetica,sans-serif" font-size="9" font-weight="bold" fill="#fff">🔄 George Soros</text>
    <circle cx="34" cy="48" r="16" fill="#fce7f3" stroke="#000" stroke-width="2.5"/>
    <ellipse cx="34" cy="44" rx="8" ry="6" fill="#fce7f3" stroke="#000" stroke-width="1.5"/>
    <circle cx="31" cy="42" r="1.5" fill="#000"/>
    <circle cx="37" cy="42" r="1.5" fill="#000"/>
    <line x1="30" y1="49" x2="38" y2="49" stroke="#000" stroke-width="1"/>
    <rect x="16" y="52" width="36" height="12" rx="3" fill="#1e293b" stroke="#000" stroke-width="1.5"/>
    <text x="85" y="44" text-anchor="middle" font-family="Arial,sans-serif" font-size="8" fill="#000">乔治·索罗斯</text>
    <text x="85" y="56" text-anchor="middle" font-family="Arial,sans-serif" font-size="7" fill="#475569">反身性 · 宏观交易</text>
    <text x="158" y="68" text-anchor="end" font-family="Arial,sans-serif" font-size="6" fill="#c4b5fd">augur-soros</text>
  </g>

  <!-- ─── SECTION LABEL: GROWTH ─── -->
  <rect x="20" y="212" width="180" height="20" rx="10" fill="#22c55e" stroke="#000" stroke-width="2"/>
  <text x="110" y="225" text-anchor="middle" font-family="Arial,Helvetica,sans-serif" font-size="9" font-weight="bold" fill="#fff">GROWTH · CYCLE · INNOVATION</text>
  <line x1="200" y1="222" x2="1160" y2="222" stroke="#000" stroke-width="1.5" stroke-dasharray="4,3"/>

  <!-- ─── ROW 2: Marks, Wood, Fisher, Thiel, Aschenbrenner, ARPS ─── -->

  <!-- Marks Card -->
  <g transform="translate(24,238)">
    <rect width="180" height="72" rx="4" fill="#e9d5ff" stroke="#000" stroke-width="3"/>
    <rect width="180" height="18" rx="4" fill="#7c3aed" stroke="#000" stroke-width="2"/>
    <text x="90" y="14" text-anchor="middle" font-family="Arial,Helvetica,sans-serif" font-size="9" font-weight="bold" fill="#fff">📉 Howard Marks</text>
    <circle cx="38" cy="48" r="16" fill="#fce7f3" stroke="#000" stroke-width="2.5"/>
    <ellipse cx="38" cy="44" rx="8" ry="6" fill="#fce7f3" stroke="#000" stroke-width="1.5"/>
    <circle cx="35" cy="42" r="1.5" fill="#000"/>
    <circle cx="41" cy="42" r="1.5" fill="#000"/>
    <path d="M36,47 Q38,50 40,47" fill="none" stroke="#000" stroke-width="1"/>
    <rect x="20" y="52" width="36" height="12" rx="3" fill="#1e293b" stroke="#000" stroke-width="1.5"/>
    <text x="90" y="44" text-anchor="middle" font-family="Arial,sans-serif" font-size="8" fill="#000">霍华德·马克斯</text>
    <text x="90" y="56" text-anchor="middle" font-family="Arial,sans-serif" font-size="7" fill="#475569">周期 · 逆向投资</text>
    <text x="168" y="68" text-anchor="end" font-family="Arial,sans-serif" font-size="6" fill="#c4b5fd">augur-marks</text>
  </g>

  <!-- Wood Card -->
  <g transform="translate(221,238)">
    <rect width="180" height="72" rx="4" fill="#bbf7d0" stroke="#000" stroke-width="3"/>
    <rect width="180" height="18" rx="4" fill="#22c55e" stroke="#000" stroke-width="2"/>
    <text x="90" y="14" text-anchor="middle" font-family="Arial,Helvetica,sans-serif" font-size="9" font-weight="bold" fill="#fff">💡 Cathie Wood</text>
    <circle cx="38" cy="48" r="16" fill="#fef9c3" stroke="#000" stroke-width="2.5"/>
    <ellipse cx="38" cy="44" rx="8" ry="6" fill="#fef9c3" stroke="#000" stroke-width="1.5"/>
    <circle cx="35" cy="42" r="1.5" fill="#000"/>
    <circle cx="41" cy="42" r="1.5" fill="#000"/>
    <path d="M34,48 Q38,51 42,48" fill="none" stroke="#000" stroke-width="1"/>
    <rect x="20" y="52" width="36" height="12" rx="3" fill="#22c55e" stroke="#000" stroke-width="1.5"/>
    <text x="90" y="44" text-anchor="middle" font-family="Arial,sans-serif" font-size="8" fill="#000">凯西·伍德</text>
    <text x="90" y="56" text-anchor="middle" font-family="Arial,sans-serif" font-size="7" fill="#475569">颠覆性创新</text>
    <text x="168" y="68" text-anchor="end" font-family="Arial,sans-serif" font-size="6" fill="#86efac">augur-cathie-wood</text>
  </g>

  <!-- Fisher Card -->
  <g transform="translate(418,238)">
    <rect width="180" height="72" rx="4" fill="#bbf7d0" stroke="#000" stroke-width="3"/>
    <rect width="180" height="18" rx="4" fill="#22c55e" stroke="#000" stroke-width="2"/>
    <text x="90" y="14" text-anchor="middle" font-family="Arial,Helvetica,sans-serif" font-size="9" font-weight="bold" fill="#fff">🔬 Philip Fisher</text>
    <circle cx="38" cy="48" r="16" fill="#f0c898" stroke="#000" stroke-width="2.5"/>
    <ellipse cx="38" cy="44" rx="8" ry="6" fill="#f0c898" stroke="#000" stroke-width="1.5"/>
    <circle cx="35" cy="42" r="1.5" fill="#000"/>
    <circle cx="41" cy="42" r="1.5" fill="#000"/>
    <circle cx="35" cy="42" r="4" fill="none" stroke="#000" stroke-width="1"/>
    <circle cx="41" cy="42" r="4" fill="none" stroke="#000" stroke-width="1"/>
    <line x1="34" y1="49" x2="42" y2="49" stroke="#000" stroke-width="1"/>
    <rect x="20" y="52" width="36" height="12" rx="3" fill="#4ade80" stroke="#000" stroke-width="1.5"/>
    <text x="90" y="44" text-anchor="middle" font-family="Arial,sans-serif" font-size="8" fill="#000">菲利普·费雪</text>
    <text x="90" y="56" text-anchor="middle" font-family="Arial,sans-serif" font-size="7" fill="#475569">成长股 · 闲聊法</text>
    <text x="168" y="68" text-anchor="end" font-family="Arial,sans-serif" font-size="6" fill="#86efac">augur-fisher</text>
  </g>

  <!-- Thiel Card -->
  <g transform="translate(615,238)">
    <rect width="180" height="72" rx="4" fill="#e9d5ff" stroke="#000" stroke-width="3"/>
    <rect width="180" height="18" rx="4" fill="#7c3aed" stroke="#000" stroke-width="2"/>
    <text x="90" y="14" text-anchor="middle" font-family="Arial,Helvetica,sans-serif" font-size="9" font-weight="bold" fill="#fff">🏢 Peter Thiel</text>
    <circle cx="38" cy="48" r="16" fill="#f0c898" stroke="#000" stroke-width="2.5"/>
    <ellipse cx="38" cy="44" rx="8" ry="6" fill="#f0c898" stroke="#000" stroke-width="1.5"/>
    <circle cx="35" cy="42" r="1.5" fill="#000"/>
    <circle cx="41" cy="42" r="1.5" fill="#000"/>
    <line x1="34" y1="49" x2="42" y2="49" stroke="#000" stroke-width="1"/>
    <rect x="20" y="52" width="36" height="12" rx="3" fill="#1e293b" stroke="#000" stroke-width="1.5"/>
    <text x="90" y="44" text-anchor="middle" font-family="Arial,sans-serif" font-size="8" fill="#000">彼得·蒂尔</text>
    <text x="90" y="56" text-anchor="middle" font-family="Arial,sans-serif" font-size="7" fill="#475569">从0到1 · 垄断</text>
    <text x="168" y="68" text-anchor="end" font-family="Arial,sans-serif" font-size="6" fill="#c4b5fd">augur-thiel</text>
  </g>

  <!-- Aschenbrenner Card -->
  <g transform="translate(812,238)">
    <rect width="180" height="72" rx="4" fill="#e9d5ff" stroke="#000" stroke-width="3"/>
    <rect width="180" height="18" rx="4" fill="#7c3aed" stroke="#000" stroke-width="2"/>
    <text x="90" y="14" text-anchor="middle" font-family="Arial,Helvetica,sans-serif" font-size="9" font-weight="bold" fill="#fff">🤖 L. Aschenbrenner</text>
    <circle cx="38" cy="48" r="16" fill="#f5d0a9" stroke="#000" stroke-width="2.5"/>
    <ellipse cx="38" cy="44" rx="8" ry="6" fill="#f5d0a9" stroke="#000" stroke-width="1.5"/>
    <circle cx="35" cy="42" r="2" fill="#000"/>
    <circle cx="41" cy="42" r="2" fill="#000"/>
    <circle cx="35" cy="42" r="4" fill="none" stroke="#000" stroke-width="1"/>
    <circle cx="41" cy="42" r="4" fill="none" stroke="#000" stroke-width="1"/>
    <path d="M34,48 Q38,51 42,48" fill="none" stroke="#000" stroke-width="1"/>
    <rect x="20" y="52" width="36" height="12" rx="3" fill="#8b5cf6" stroke="#000" stroke-width="1.5"/>
    <text x="90" y="44" text-anchor="middle" font-family="Arial,sans-serif" font-size="7" fill="#000">阿申布伦纳</text>
    <text x="90" y="56" text-anchor="middle" font-family="Arial,sans-serif" font-size="7" fill="#475569">AI地缘政治</text>
    <text x="168" y="68" text-anchor="end" font-family="Arial,sans-serif" font-size="6" fill="#c4b5fd">augur-aschenbr.</text>
  </g>

  <!-- ARPS Card -->
  <g transform="translate(1009,238)">
    <rect width="170" height="72" rx="4" fill="#fef9c3" stroke="#000" stroke-width="3"/>
    <rect width="170" height="18" rx="4" fill="#eab308" stroke="#000" stroke-width="2"/>
    <text x="85" y="14" text-anchor="middle" font-family="Arial,Helvetica,sans-serif" font-size="9" font-weight="bold" fill="#000">🥇 ARPS</text>
    <circle cx="34" cy="48" r="16" fill="#e0f2fe" stroke="#000" stroke-width="2.5"/>
    <ellipse cx="34" cy="44" rx="8" ry="6" fill="#e0f2fe" stroke="#000" stroke-width="1.5"/>
    <circle cx="31" cy="42" r="1.5" fill="#000"/>
    <circle cx="37" cy="42" r="1.5" fill="#000"/>
    <path d="M30,48 Q34,50 38,48" fill="none" stroke="#000" stroke-width="1"/>
    <rect x="16" y="52" width="36" height="12" rx="3" fill="#2dd4bf" stroke="#000" stroke-width="1.5"/>
    <text x="85" y="44" text-anchor="middle" font-family="Arial,sans-serif" font-size="8" fill="#000">Crypto/黄金</text>
    <text x="85" y="56" text-anchor="middle" font-family="Arial,sans-serif" font-size="7" fill="#475569">宏观联动</text>
    <text x="158" y="68" text-anchor="end" font-family="Arial,sans-serif" font-size="6" fill="#ca8a04">augur-arps</text>
  </g>

  <!-- ─── SECTION LABEL: CHINA ─── -->
  <rect x="20" y="322" width="160" height="20" rx="10" fill="#dc2626" stroke="#000" stroke-width="2"/>
  <text x="100" y="335" text-anchor="middle" font-family="Arial,Helvetica,sans-serif" font-size="9" font-weight="bold" fill="#fff">🇨🇳 CHINA INVESTORS</text>
  <line x1="180" y1="332" x2="1160" y2="332" stroke="#000" stroke-width="1.5" stroke-dasharray="4,3"/>

  <!-- ─── ROW 3: 5 Chinese investors centered ─── -->

  <!-- Dayu Card -->
  <g transform="translate(112,348)">
    <rect width="180" height="72" rx="4" fill="#fef9c3" stroke="#000" stroke-width="3"/>
    <rect width="180" height="18" rx="4" fill="#eab308" stroke="#000" stroke-width="2"/>
    <text x="90" y="14" text-anchor="middle" font-family="Arial,Helvetica,sans-serif" font-size="9" font-weight="bold" fill="#000">₿ 大宇 (BTCdayu)</text>
    <circle cx="38" cy="48" r="16" fill="#f5d0a9" stroke="#000" stroke-width="2.5"/>
    <ellipse cx="38" cy="44" rx="8" ry="6" fill="#f5d0a9" stroke="#000" stroke-width="1.5"/>
    <circle cx="35" cy="42" r="2" fill="#000"/>
    <circle cx="41" cy="42" r="2" fill="#000"/>
    <path d="M34,48 Q38,52 42,48" fill="none" stroke="#000" stroke-width="1"/>
    <path d="M32,40 L34,36 L38,38" fill="none" stroke="#000" stroke-width="1"/>
    <rect x="20" y="52" width="36" height="12" rx="3" fill="#1a1a2e" stroke="#000" stroke-width="1.5"/>
    <text x="90" y="44" text-anchor="middle" font-family="Arial,sans-serif" font-size="8" fill="#000">大宇</text>
    <text x="90" y="56" text-anchor="middle" font-family="Arial,sans-serif" font-size="7" fill="#475569">信息差 · 情绪动量</text>
    <text x="168" y="68" text-anchor="end" font-family="Arial,sans-serif" font-size="6" fill="#ca8a04">augur-dayu</text>
  </g>

  <!-- Duan Yongping Card -->
  <g transform="translate(309,348)">
    <rect width="180" height="72" rx="4" fill="#fecaca" stroke="#000" stroke-width="3"/>
    <rect width="180" height="18" rx="4" fill="#dc2626" stroke="#000" stroke-width="2"/>
    <text x="90" y="14" text-anchor="middle" font-family="Arial,Helvetica,sans-serif" font-size="9" font-weight="bold" fill="#fff">🎯 段永平 🇨🇳</text>
    <circle cx="38" cy="48" r="16" fill="#f0c898" stroke="#000" stroke-width="2.5"/>
    <ellipse cx="38" cy="44" rx="8" ry="6" fill="#f0c898" stroke="#000" stroke-width="1.5"/>
    <circle cx="35" cy="42" r="1.5" fill="#000"/>
    <circle cx="41" cy="42" r="1.5" fill="#000"/>
    <circle cx="35" cy="42" r="4" fill="none" stroke="#000" stroke-width="1"/>
    <circle cx="41" cy="42" r="4" fill="none" stroke="#000" stroke-width="1"/>
    <path d="M36,47 Q38,49 40,47" fill="none" stroke="#000" stroke-width="1"/>
    <rect x="20" y="52" width="36" height="12" rx="3" fill="#ef4444" stroke="#000" stroke-width="1.5"/>
    <text x="90" y="44" text-anchor="middle" font-family="Arial,sans-serif" font-size="8" fill="#000">段永平</text>
    <text x="90" y="56" text-anchor="middle" font-family="Arial,sans-serif" font-size="7" fill="#475569">本分哲学 · 极度集中</text>
    <text x="168" y="68" text-anchor="end" font-family="Arial,sans-serif" font-size="6" fill="#fca5a5">augur-duan-yp</text>
  </g>

  <!-- Zhang Lei Card -->
  <g transform="translate(506,348)">
    <rect width="180" height="72" rx="4" fill="#fecaca" stroke="#000" stroke-width="3"/>
    <rect width="180" height="18" rx="4" fill="#dc2626" stroke="#000" stroke-width="2"/>
    <text x="90" y="14" text-anchor="middle" font-family="Arial,Helvetica,sans-serif" font-size="9" font-weight="bold" fill="#fff">🌏 张磊 (高瓴) 🇨🇳</text>
    <circle cx="38" cy="48" r="16" fill="#f0c898" stroke="#000" stroke-width="2.5"/>
    <ellipse cx="38" cy="44" rx="8" ry="6" fill="#f0c898" stroke="#000" stroke-width="1.5"/>
    <circle cx="35" cy="42" r="1.5" fill="#000"/>
    <circle cx="41" cy="42" r="1.5" fill="#000"/>
    <line x1="34" y1="49" x2="42" y2="49" stroke="#000" stroke-width="1"/>
    <rect x="20" y="52" width="36" height="12" rx="3" fill="#dc2626" stroke="#000" stroke-width="1.5"/>
    <text x="90" y="44" text-anchor="middle" font-family="Arial,sans-serif" font-size="8" fill="#000">张磊</text>
    <text x="90" y="56" text-anchor="middle" font-family="Arial,sans-serif" font-size="7" fill="#475569">长期结构性价值</text>
    <text x="168" y="68" text-anchor="end" font-family="Arial,sans-serif" font-size="6" fill="#fca5a5">augur-zhang-lei</text>
  </g>

  <!-- Li Lu Card -->
  <g transform="translate(703,348)">
    <rect width="180" height="72" rx="4" fill="#fecaca" stroke="#000" stroke-width="3"/>
    <rect width="180" height="18" rx="4" fill="#dc2626" stroke="#000" stroke-width="2"/>
    <text x="90" y="14" text-anchor="middle" font-family="Arial,Helvetica,sans-serif" font-size="9" font-weight="bold" fill="#fff">🏔️ 李录 (喜马拉雅) 🇨🇳</text>
    <circle cx="38" cy="48" r="16" fill="#f0c898" stroke="#000" stroke-width="2.5"/>
    <ellipse cx="38" cy="44" rx="8" ry="6" fill="#f0c898" stroke="#000" stroke-width="1.5"/>
    <circle cx="35" cy="42" r="1.5" fill="#000"/>
    <circle cx="41" cy="42" r="1.5" fill="#000"/>
    <circle cx="35" cy="42" r="4" fill="none" stroke="#000" stroke-width="1"/>
    <circle cx="41" cy="42" r="4" fill="none" stroke="#000" stroke-width="1"/>
    <path d="M36,47 Q38,50 40,47" fill="none" stroke="#000" stroke-width="1"/>
    <rect x="20" y="52" width="36" height="12" rx="3" fill="#2563eb" stroke="#000" stroke-width="1.5"/>
    <text x="90" y="44" text-anchor="middle" font-family="Arial,sans-serif" font-size="8" fill="#000">李录</text>
    <text x="90" y="56" text-anchor="middle" font-family="Arial,sans-serif" font-size="7" fill="#475569">深度价值 · 安全边际</text>
    <text x="168" y="68" text-anchor="end" font-family="Arial,sans-serif" font-size="6" fill="#fca5a5">augur-li-lu</text>
  </g>

  <!-- Dan Bin Card -->
  <g transform="translate(900,348)">
    <rect width="180" height="72" rx="4" fill="#fecaca" stroke="#000" stroke-width="3"/>
    <rect width="180" height="18" rx="4" fill="#dc2626" stroke="#000" stroke-width="2"/>
    <text x="90" y="14" text-anchor="middle" font-family="Arial,Helvetica,sans-serif" font-size="9" font-weight="bold" fill="#fff">🫖 但斌 (东方港湾) 🇨🇳</text>
    <circle cx="38" cy="48" r="16" fill="#f0c898" stroke="#000" stroke-width="2.5"/>
    <ellipse cx="38" cy="44" rx="8" ry="6" fill="#f0c898" stroke="#000" stroke-width="1.5"/>
    <circle cx="35" cy="42" r="1.5" fill="#000"/>
    <circle cx="41" cy="42" r="1.5" fill="#000"/>
    <circle cx="35" cy="42" r="4" fill="none" stroke="#000" stroke-width="1"/>
    <circle cx="41" cy="42" r="4" fill="none" stroke="#000" stroke-width="1"/>
    <path d="M34,48 Q38,51 42,48" fill="none" stroke="#000" stroke-width="1"/>
    <rect x="20" y="52" width="36" height="12" rx="3" fill="#dc2626" stroke="#000" stroke-width="1.5"/>
    <text x="90" y="44" text-anchor="middle" font-family="Arial,sans-serif" font-size="8" fill="#000">但斌</text>
    <text x="90" y="56" text-anchor="middle" font-family="Arial,sans-serif" font-size="7" fill="#475569">品牌护城河 · 时代β</text>
    <text x="168" y="68" text-anchor="end" font-family="Arial,sans-serif" font-size="6" fill="#fca5a5">augur-dan-bin</text>
  </g>

  <!-- ─── FOOTER STATS PANEL ─── -->
  <rect x="20" y="434" width="1160" height="60" rx="6" fill="#eff6ff" stroke="#000" stroke-width="3"/>
  <!-- 5 stats -->
  <text x="120" y="462" text-anchor="middle" font-family="'Arial Black',sans-serif" font-size="26" font-weight="900" fill="#2563eb" stroke="#000" stroke-width="0.8">17</text>
  <text x="120" y="480" text-anchor="middle" font-family="Arial,sans-serif" font-size="9" font-weight="bold" fill="#000">AI 投资大师</text>

  <circle cx="240" cy="462" r="3" fill="#000"/>

  <text x="360" y="462" text-anchor="middle" font-family="'Arial Black',sans-serif" font-size="26" font-weight="900" fill="#22c55e" stroke="#000" stroke-width="0.8">SEC</text>
  <text x="360" y="480" text-anchor="middle" font-family="Arial,sans-serif" font-size="9" font-weight="bold" fill="#000">13F 实时持仓</text>

  <circle cx="480" cy="462" r="3" fill="#000"/>

  <text x="600" y="462" text-anchor="middle" font-family="'Arial Black',sans-serif" font-size="26" font-weight="900" fill="#7c3aed" stroke="#000" stroke-width="0.8">6+</text>
  <text x="600" y="480" text-anchor="middle" font-family="Arial,sans-serif" font-size="9" font-weight="bold" fill="#000">加权共识机制</text>

  <circle cx="720" cy="462" r="3" fill="#000"/>

  <text x="840" y="462" text-anchor="middle" font-family="'Arial Black',sans-serif" font-size="26" font-weight="900" fill="#eab308" stroke="#000" stroke-width="0.8">Kelly</text>
  <text x="840" y="480" text-anchor="middle" font-family="Arial,sans-serif" font-size="9" font-weight="bold" fill="#000">仓位建议</text>

  <circle cx="960" cy="462" r="3" fill="#000"/>

  <text x="1080" y="462" text-anchor="middle" font-family="'Arial Black',sans-serif" font-size="26" font-weight="900" fill="#dc2626" stroke="#000" stroke-width="0.8">Skill</text>
  <text x="1080" y="480" text-anchor="middle" font-family="Arial,sans-serif" font-size="9" font-weight="bold" fill="#000">随时可部署</text>

  <!-- ─── BOTTOM STATUS BAR ─── -->
  <rect x="20" y="504" width="1160" height="30" rx="4" fill="#f8fafc" stroke="#000" stroke-width="3"/>
  <!-- Speech bubble element -->
  <circle cx="40" cy="519" r="5" fill="#22c55e" stroke="#000" stroke-width="2"/>
  <text x="52" y="523" font-family="'Courier New',monospace" font-size="9" font-weight="bold" fill="#000">SYSTEM READY</text>
  <text x="600" y="523" text-anchor="middle" font-family="'Courier New',monospace" font-size="9" font-weight="bold" fill="#000">github.com/BruceLanLan/augur</text>
  <text x="1160" y="523" text-anchor="end" font-family="'Courier New',monospace" font-size="9" font-weight="bold" fill="#000">v3.5.0</text>

  <!-- Comic sound effects -->
  <text x="1140" y="580" font-family="'Arial Black',sans-serif" font-size="14" font-weight="900" fill="#2563eb" stroke="#000" stroke-width="0.5" transform="rotate(-8,1140,580)">★ ANALYSIS ★</text>

  <!-- Manga-style action lines in bottom-right -->
  <line x1="1080" y1="570" x2="1120" y2="570" stroke="#000" stroke-width="2"/>
  <line x1="1090" y1="578" x2="1130" y2="578" stroke="#000" stroke-width="1.5"/>
  <line x1="1100" y1="586" x2="1120" y2="586" stroke="#000" stroke-width="1"/>
</svg>